<?xml version="1.0" encoding="utf-8"?>
<!-- Generator: Adobe Illustrator 19.2.1, SVG Export Plug-In . SVG Version: 6.00 Build 0)  -->
<svg version="1.1" id="layer" xmlns="http://www.w3.org/2000/svg" xmlns:xlink="http://www.w3.org/1999/xlink" x="0px" y="0px"
	 viewBox="0 0 652 652" style="enable-background:new 0 0 652 652;" xml:space="preserve">
<style type="text/css">
	.st0{fill:#3E3935;}
	.st1{fill:#1297C4;}
	.st2{fill:#109AD6;}
</style>
<g>
	<path class="st0" d="M166.6,229.1h52.7c48.8,0,77.1,28.1,77.1,67.5v0.4c0,39.4-28.7,68.7-77.9,68.7h-51.9V229.1z M219.8,332.1
		c22.6,0,37.7-12.5,37.7-34.6v-0.4c0-21.9-15-34.6-37.7-34.6h-15.4v69.5H219.8z"/>
	<polygon class="st0" points="315.9,229.1 355.9,229.1 388.5,282 421.1,229.1 461.1,229.1 461.1,365.7 423.4,365.7 423.4,287.2 
		388.5,340.7 387.7,340.7 353,287.6 353,365.7 315.9,365.7 	"/>
	<polygon class="st0" points="474.4,229.1 516.7,229.1 547.8,315.5 578.8,229.1 620.4,229.1 564.9,366.7 529.8,366.7 	"/>
	<path class="st1" d="M47.8,291.6c2.8-5,3.2-14.4-3.5-23c-5.8-7.4-15.4-13.5-23.9-17.8v66.5c0,0.5,0.2,1.1,0.5,1.5
		C30.8,309.6,45.4,295.9,47.8,291.6"/>
	<path class="st1" d="M91.6,278.6c-11.9-15.2-35.4-23.2-35.4-23.2s-11.5-4.1-18.7-6.5c-6.1-2-12.8-4.2-17-5.6v3.4
		c16.2,4.7,26.5,8.5,42.5,17.1c22.1,11.8,26.5,24.9,21.9,36.5c-2.6,6.5-13,17.4-21.6,25.7c-3.6,3.5-9.5,9.8-14.8,15.2l12.3,10
		c11.2-12.1,22.3-24.4,26.2-29.2c6.7-8.4,9.8-15.6,11.1-19.8C99.8,296.1,98.3,287.2,91.6,278.6"/>
	<path class="st2" d="M140,229.2H21.6c-0.7,0-1.2,0.6-1.2,1.2v12.3c3.5,0.9,8.8,2.4,15.1,4.2c8.2,2.4,18.4,5.3,19,5.5
		c24.9,7.5,35.7,10.6,55.7,21.3c22.1,11.8,25.4,24.5,23.4,36.8c-1,6.1-7,17.6-10.2,22.2c-3.4,5-11,18.4-19.9,29.5
		c-3.9,4.8-8,9.8-11.8,14.2L124,403c0.5,0.4,1,0.2,1-0.4l0.7-9.9c0-0.7,0.1-1.8,0.2-2.5l0.5-7.8c0-0.7,0.6-1.4,1.3-1.6l4.1-1.4
		c0.6-0.2,1.6,0,2,0.5l2.6,2.6c0.5,0.5,1.3,0.5,1.7,0l2.2-2.2c0.5-0.5,0.9-1.4,0.9-2.1V230.5C141.2,229.8,140.6,229.2,140,229.2"/>
	<path class="st0" d="M280.5,411.4v-5.1c-2,3-4.9,5.6-9.4,5.6c-5.5,0-11.1-4.4-11.1-11.9V400c0-7.4,5.6-12,11.1-12
		c4.6,0,7.5,2.6,9.4,5.5v-14.8h2.2v32.7H280.5z M280.6,399.9c0-5.9-4.6-9.8-9.3-9.8c-5,0-9,3.6-9,9.8v0.1c0,6,4.2,9.9,9,9.9
		C276,409.8,280.6,405.9,280.6,399.9L280.6,399.9z"/>
	<path class="st0" d="M324.3,411.4v-13.6c0-4.9-2.6-7.8-6.8-7.8c-3.9,0-7.2,3-7.2,8.1v13.3h-2.2v-13.7c0-4.8-2.6-7.7-6.7-7.7
		c-4.1,0-7.3,3.6-7.3,8.2v13.2h-2.2v-22.9h2.2v4.1c1.5-2.4,3.5-4.6,7.6-4.6c4,0,6.5,2.3,7.7,4.9c1.5-2.6,3.9-4.9,8.3-4.9
		c5.4,0,8.8,3.8,8.8,9.5v13.9H324.3z"/>
	<polygon class="st0" points="344.4,411.6 342.5,411.6 332.2,388.5 334.8,388.5 343.4,408.9 352.2,388.5 354.6,388.5 	"/>
	<path class="st0" d="M378.9,411.4v-13.6c0-4.7-2.6-7.8-7.3-7.8c-4.5,0-7.9,3.4-7.9,8.2v13.2h-2.2v-22.9h2.2v4.3
		c1.5-2.7,4.1-4.8,8.3-4.8c5.8,0,9.1,3.9,9.1,9.4v14H378.9z"/>
	<polygon class="st0" points="398.8,411.6 396.9,411.6 386.7,388.5 389.2,388.5 397.9,408.9 406.6,388.5 409.1,388.5 	"/>
	<rect x="411.7" y="407.6" class="st0" width="3" height="3.8"/>
	<path class="st0" d="M432.6,412c-6.6,0-11.7-5.5-11.7-11.9V400c0-6.4,5.1-12,11.7-12c4.3,0,7,2,9.1,4.2l-1.6,1.6
		c-2-2-4.2-3.8-7.6-3.8c-5.2,0-9.2,4.3-9.2,9.8v0.1c0,5.5,4.2,9.9,9.4,9.9c3.2,0,5.7-1.7,7.7-3.8l1.5,1.3
		C439.6,410.1,436.8,412,432.6,412"/>
	<path class="st0" d="M458.4,412c-6.8,0-11.7-5.5-11.7-11.9V400c0-6.4,5-12,11.8-12c6.8,0,11.7,5.5,11.7,11.9v0.1
		C470.2,406.4,465.2,412,458.4,412 M467.8,400c0-5.5-4.1-9.9-9.4-9.9c-5.4,0-9.3,4.4-9.3,9.8v0.1c0,5.5,4.1,9.9,9.4,9.9
		C463.9,409.9,467.8,405.5,467.8,400L467.8,400z"/>
	<path class="st0" d="M510.3,411.4v-13.6c0-4.9-2.6-7.8-6.8-7.8c-3.9,0-7.2,3-7.2,8.1v13.3h-2.2v-13.7c0-4.8-2.6-7.7-6.7-7.7
		s-7.3,3.6-7.3,8.2v13.2h-2.2v-22.9h2.2v4.1c1.5-2.4,3.5-4.6,7.6-4.6c4,0,6.4,2.3,7.7,4.9c1.5-2.6,3.9-4.9,8.3-4.9
		c5.4,0,8.8,3.8,8.8,9.5v13.9H510.3z"/>
</g>
</svg>
